<?xml version="1.0" encoding="utf-8"?>
<!-- Generator: Adobe Illustrator 23.0.0, SVG Export Plug-In . SVG Version: 6.00 Build 0)  -->
<svg version="1.1" id="图层_1" xmlns="http://www.w3.org/2000/svg" xmlns:xlink="http://www.w3.org/1999/xlink" x="0px" y="0px"
	 viewBox="0 0 52 52" style="enable-background:new 0 0 52 52;" xml:space="preserve">
<style type="text/css">
	.st0{fill:#2982CE;}
</style>
<title>二维码</title>
<desc>Created with Sketch.</desc>
<g id="Page-1">
	<path id="二维码" class="st0" d="M0,0h20v20L0,0z M32,0h20v20H32V0z M32,32v-4h-4l-4-4v-8h4v4h4v4h8v4h-4v4h4v-4h4v-4h8v4h-4v4
		h4v20L32,32z M36,4v12h12V4H36z M36,36l12,12V36H36z M4,4l12,12V4H4z M39,7h6v6h-6V7z M39,39h6v6L39,39z M24,8h4v4h-4V8z M24,0h4v4
		h-4V0z M13,13L7,7h6V13z"/>
</g>
</svg>
